<svg width="512px" height="512px" enable-background="new 0 0 442 442" version="1.1" viewBox="0 0 442 442" xml:space="preserve" xmlns="http://www.w3.org/2000/svg">
<path d="m442 268.47v-159.39c4e-3 -0.471-0.036-0.945-0.1-1.419-0.012-0.091-0.025-0.182-0.04-0.272-0.072-0.435-0.163-0.868-0.294-1.299-3e-3 -9e-3 -7e-3 -0.018-0.01-0.027-0.096-0.311-0.206-0.619-0.334-0.925-0.037-0.088-0.083-0.168-0.122-0.255-0.049-0.108-0.101-0.214-0.154-0.321-0.17-0.343-0.355-0.674-0.559-0.989-0.028-0.044-0.052-0.089-0.081-0.132-0.247-0.369-0.518-0.714-0.806-1.041-0.054-0.061-0.11-0.118-0.165-0.178-0.267-0.289-0.548-0.561-0.844-0.813-0.047-0.041-0.091-0.083-0.139-0.123-0.335-0.275-0.688-0.524-1.053-0.752-0.085-0.053-0.172-0.102-0.259-0.152-0.339-0.198-0.688-0.378-1.047-0.535-0.042-0.018-0.079-0.044-0.122-0.062l-235.98-99.009c-0.022-9e-3 -0.044-0.015-0.066-0.024-0.092-0.038-0.188-0.067-0.282-0.102-1.447-0.545-2.944-0.74-4.396-0.611-0.028 2e-3 -0.055 1e-3 -0.083 4e-3 -0.661 0.064-1.311 0.193-1.942 0.384-0.038 0.012-0.076 0.028-0.114 0.041-0.276 0.087-0.55 0.184-0.817 0.294-0.012 5e-3 -0.025 8e-3 -0.038 0.014l-69.22 29.042c-3.714 1.559-6.131 5.193-6.131 9.222s2.417 7.663 6.131 9.222l63.089 26.471v88.156l-179.89 75.477c-0.126 0.053-0.242 0.118-0.364 0.175-0.119 0.056-0.238 0.11-0.355 0.171-0.284 0.146-0.557 0.305-0.821 0.475-0.042 0.027-0.086 0.046-0.128 0.074-0.01 7e-3 -0.018 0.015-0.028 0.021-0.332 0.222-0.647 0.461-0.945 0.717-0.031 0.026-0.058 0.055-0.088 0.082-0.255 0.225-0.497 0.461-0.726 0.708-0.068 0.073-0.132 0.148-0.198 0.223-0.187 0.214-0.364 0.436-0.531 0.664-0.063 0.085-0.126 0.169-0.186 0.256-0.18 0.263-0.346 0.533-0.5 0.81-0.028 0.051-0.061 0.099-0.088 0.15-0.174 0.327-0.327 0.665-0.464 1.008-0.037 0.093-0.066 0.188-0.1 0.283-0.094 0.26-0.179 0.522-0.252 0.789-0.031 0.116-0.06 0.231-0.087 0.348-0.064 0.274-0.116 0.551-0.157 0.831-0.014 0.093-0.031 0.186-0.042 0.28-0.046 0.393-0.073 0.788-0.072 1.187v85.372c0 4.028 2.417 7.663 6.131 9.222l235.92 98.984c0.623 0.267 1.278 0.471 1.958 0.607 0.063 0.013 0.127 0.018 0.19 0.029 0.259 0.047 0.518 0.091 0.784 0.117 0.331 0.033 0.664 0.05 0.997 0.05s0.665-0.017 0.997-0.05c0.265-0.026 0.525-0.07 0.784-0.117 0.063-0.011 0.127-0.016 0.19-0.029 0.68-0.136 1.336-0.34 1.958-0.607l185.96-78.025c3.714-1.559 6.131-5.193 6.131-9.222v-85.371-0.105zm-111.77 31.929l-63.151-26.496c-5.095-2.144-10.954 0.259-13.09 5.352s0.259 10.953 5.352 13.091l45.043 18.898-58.405 24.505-108.36-45.463 58.404-24.505 35.524 14.905c5.094 2.137 10.954-0.26 13.09-5.353 2.137-5.093-0.259-10.953-5.352-13.091l-33.262-13.956v-63.71l200.13 83.968-75.924 31.855zm-144.2-52.112l-74.252 31.154-75.924-31.856 150.18-63.009v63.711zm10-227.45l210.13 88.164-43.373 18.199-162.82-68.316c-0.03-0.013-0.061-0.025-0.092-0.038l-47.216-19.811 43.373-18.198zm162.81 126.4c1.256 0.539 2.598 0.81 3.942 0.81 1.314 0 2.629-0.259 3.869-0.778l55.351-23.225v129.46l-215.98-90.617v-79.764l152.81 64.116zm-338.84 115.39l215.98 90.618v63.711l-215.98-90.617v-63.712zm402 84.671l-166.02 69.658v-63.711l166.02-69.659v63.712z" fill="#e8e8e8"/>
</svg>
